# xmcd CD database file
#
# Track frame offsets:
#	150
#	15834
#	31320
#
# Disc length: 687 seconds
#
# Revision: 5
# Processed by: cddbd v1.5.2PL0 Copyright (c) Steve Scherf et al.
# Submitted via: CDex 2.17
#
DISCID=1202ad03
DTITLE=Louie Louie - Sittin' In The Lap Of Luxury [CD Single)
DYEAR=1990
DGENRE=Pop
TTITLE0=Sittin' In The Lap Of Luxury (Keith Cohen Mix/Radio Recommended)
TTITLE1=Sittin' In The Lap Of Luxury (Shep Pettibone Mix)
TTITLE2=Sittin' In The Lap Of Luxury (Shep's Jam/Louie's Fav II)
EXTD=YEAR: 1990
EXTT0=
EXTT1=
EXTT2=
PLAYORDER=
